# xmcd
#
# Track frame offsets: 
#        150
#        23357
#        44457
#        69667
#        99197
#        124632
#        144320
#        168812
#        196312
#        219875
#        237412
#
# Disc length: 3489 seconds
#
# Revision: 1
# Processed by: cddbd v1.5.2PL0 Copyright (c) Steve Scherf et al.
# Submitted via: ExactAudioCopy v0.99pb4
#
DISCID=870d9f0b
DTITLE=Joe Louis Walker - Blues Of The Month Club
DYEAR=1995
DGENRE=Blues
TTITLE0=Blues Of The Month Club
TTITLE1=You've Got To Lose
TTITLE2=Lost Heart
TTITLE3=Bluesifyin'
TTITLE4=Hidden Fellings
TTITLE5=Play'em Where They Lay
TTITLE6=Get It Right
TTITLE7=I'm Not Comin' Over
TTITLE8=Second Street
TTITLE9=Your Lyin' Eyes
TTITLE10=Street People
EXTD=
EXTT0=
EXTT1=
EXTT2=
EXTT3=
EXTT4=
EXTT5=
EXTT6=
EXTT7=
EXTT8=
EXTT9=
EXTT10=
PLAYORDER=
